<?xml version="1.0" standalone="no"?>
<!DOCTYPE svg PUBLIC "-//W3C//DTD SVG 20010904//EN"
 "http://www.w3.org/TR/2001/REC-SVG-20010904/DTD/svg10.dtd">
<svg version="1.0" xmlns="http://www.w3.org/2000/svg"
 width="232.000000pt" height="252.000000pt" viewBox="20 10 232 252"
 preserveAspectRatio="xMidYMid meet">

<g transform="translate(0.000000,272.000000) scale(0.100000,-0.100000)"
fill="#000000" stroke="none">
<path d="M1008 2614 c-33 -17 -49 -46 -77 -137 -24 -80 -20 -115 20 -153 22
-21 41 -28 84 -32 l55 -4 0 -78 0 -77 -102 -5 c-63 -4 -118 -12 -141 -22 -45
-20 -109 -76 -136 -119 -19 -31 -146 -448 -195 -640 -35 -135 -41 -231 -26
-412 l13 -156 41 -21 c23 -11 67 -40 99 -64 33 -24 69 -44 80 -44 12 0 90 13
172 30 207 40 307 51 471 52 183 0 307 -15 531 -62 51 -11 104 -20 117 -20 13
0 50 20 83 44 32 24 76 53 99 64 l41 21 13 156 c15 181 9 277 -26 412 -49 192
-176 609 -195 640 -27 43 -91 99 -136 119 -23 10 -78 18 -140 22 l-103 5 0 77
0 78 55 4 c64 5 109 39 119 89 5 29 -23 138 -50 191 -29 56 -42 58 -406 58
-275 -1 -338 -3 -360 -16z m532 -404 l0 -80 -170 0 -170 0 0 80 0 80 170 0
170 0 0 -80z m32 -390 c80 -25 156 -74 181 -118 26 -45 43 -114 66 -277 21
-146 51 -488 51 -581 l0 -54 -53 0 -53 0 -12 190 c-13 202 -44 469 -68 585
-17 80 -36 105 -105 134 -144 62 -411 39 -488 -43 -37 -39 -81 -330 -103 -676
l-12 -190 -54 0 -55 0 7 138 c12 242 49 564 78 681 25 101 64 148 163 192
116 52 324 60 457 19z"/>
<path d="M355 665 c-47 -17 -82 -57 -91 -103 -7 -36 11 -195 27 -248 5 -17 22
-42 37 -56 21 -21 277 -157 355 -190 16 -7 17 8 17 230 l0 238 -35 13 c-19 6
-53 28 -77 47 -83 70 -162 94 -233 69z"/>
<path d="M2290 671 c-46 -10 -87 -32 -139 -75 -23 -19 -57 -41 -76 -47 l-35
-13 0 -238 0 -238 28 12 c15 7 92 46 172 87 143 72 182 98 202 135 11 21 38
184 38 236 0 95 -89 161 -190 141z"/>
<path d="M1160 614 c-48 -6 -311 -53 -332 -60 -17 -5 -18 -26 -18 -250 l0
-244 560 0 560 0 0 244 c0 224 -1 245 -17 250 -10 3 -81 17 -158 32 -118 22
-172 27 -350 29 -115 2 -226 1 -245 -1z"/>
</g>
</svg>
