<?xml version="1.0" standalone="no"?>
<!DOCTYPE svg PUBLIC "-//W3C//DTD SVG 20010904//EN"
 "http://www.w3.org/TR/2001/REC-SVG-20010904/DTD/svg10.dtd">
<svg version="1.0" xmlns="http://www.w3.org/2000/svg"
 width="131.000000pt" height="133.000000pt" viewBox="18 16 131 133"
 preserveAspectRatio="xMidYMid meet">

<g transform="translate(0.000000,165.000000) scale(0.100000,-0.100000)"
fill="#000000" stroke="none">
<path d="M280 1410 c-19 -19 -20 -33 -20 -434 l0 -415 26 -20 c25 -20 39 -21
238 -21 200 0 214 1 234 20 22 21 22 22 22 435 0 402 -1 416 -20 435 -19 19
-33 20 -240 20 -207 0 -221 -1 -240 -20z m290 -40 c0 -5 -22 -10 -50 -10 -27
0 -50 5 -50 10 0 6 23 10 50 10 28 0 50 -4 50 -10z m180 -380 l0 -330 -230 0
-230 0 0 330 0 330 230 0 230 0 0 -330z m-206 -376 c9 -8 16 -19 16 -24 0 -11
-29 -40 -40 -40 -5 0 -16 10 -24 22 -14 20 -14 24 1 40 20 22 27 22 47 2z"/>
<path d="M492 1082 c-39 -59 -72 -110 -72 -114 0 -5 18 -8 41 -8 34 0 39 -3
35 -17 -16 -54 -28 -113 -24 -124 4 -12 148 183 148 201 0 5 -18 10 -40 10
-46 0 -46 0 -24 82 8 33 14 64 12 69 -2 4 -36 -40 -76 -99z"/>
<path d="M986 1334 c-24 -23 -24 -385 0 -408 8 -9 20 -16 25 -16 12 0 12 23
-1 36 -7 7 -9 77 -8 190 l3 179 170 0 170 0 3 -179 c1 -113 -1 -183 -8 -190
-13 -13 -13 -36 -1 -36 5 0 17 7 25 16 24 23 24 385 0 408 -13 13 -45 16 -189
16 -144 0 -176 -3 -189 -16z"/>
<path d="M1107 1214 c-13 -13 -7 -71 8 -84 19 -16 28 4 23 51 -3 32 -17 46
-31 33z"/>
<path d="M1217 1213 c-10 -10 -8 -81 2 -87 18 -11 32 22 25 58 -6 35 -14 43
-27 29z"/>
<path d="M1052 1082 c-9 -7 -12 -47 -10 -168 l3 -159 130 0 130 0 3 159 c2
121 -1 161 -10 168 -7 4 -62 8 -123 8 -60 0 -116 -4 -123 -8z"/>
<path d="M1130 692 c0 -35 4 -52 15 -56 12 -4 15 -29 15 -133 0 -70 -5 -144
-10 -164 -15 -54 -51 -101 -95 -126 -37 -21 -52 -23 -215 -23 -163 0 -178 2
-215 23 -26 14 -48 37 -62 67 -27 51 -30 115 -8 124 11 4 15 20 15 56 l0 50
-50 0 -50 0 0 -50 c0 -30 5 -52 13 -57 8 -4 17 -30 20 -57 13 -95 71 -163 160
-187 24 -6 106 -9 201 -7 173 3 211 13 263 70 51 54 63 103 63 258 0 134 2
147 21 163 15 13 19 27 17 55 -3 37 -4 37 -50 40 l-48 3 0 -49z"/>
</g>
</svg>
