<?xml version="1.0" standalone="no"?>
<!DOCTYPE svg PUBLIC "-//W3C//DTD SVG 20010904//EN"
 "http://www.w3.org/TR/2001/REC-SVG-20010904/DTD/svg10.dtd">
<svg version="1.0" xmlns="http://www.w3.org/2000/svg"
 width="170.000000pt" height="160.000000pt" viewBox="15 25 170 160"
 preserveAspectRatio="xMidYMid meet">

<g transform="translate(0.000000,200.000000) scale(0.100000,-0.100000)"
fill="#000000" stroke="none">
<path d="M1222 1673 c-46 -25 -86 -52 -89 -60 -6 -15 9 -114 28 -185 10 -40
25 -46 78 -31 22 5 23 9 17 54 -4 27 -4 49 0 49 20 0 110 -68 156 -119 63 -68
110 -153 132 -237 20 -78 20 -213 1 -289 -46 -176 -189 -328 -368 -390 -62
-21 -62 -22 -61 -59 2 -58 14 -63 91 -38 189 61 350 217 419 405 104 289 -7
619 -266 786 l-61 40 30 16 c17 8 31 22 31 31 0 24 -29 74 -43 74 -6 -1 -49
-21 -95 -47z"/>
<path d="M773 1626 c-136 -51 -271 -161 -342 -279 -185 -311 -93 -711 207
-905 l63 -41 -30 -16 c-17 -8 -31 -22 -31 -31 0 -21 29 -74 40 -74 20 0 182
93 187 108 6 14 -9 113 -28 185 -10 39 -25 45 -78 30 -22 -5 -23 -9 -17 -54 4
-27 4 -49 0 -49 -20 0 -110 68 -156 119 -63 68 -110 153 -132 237 -20 78 -20
213 -1 289 46 175 187 325 368 390 67 24 76 39 58 88 -13 33 -27 33 -108 3z"/>
<path d="M957 1424 c-4 -4 -7 -48 -7 -98 l0 -91 -38 -16 -37 -16 -67 65 c-63
61 -69 65 -93 54 -14 -6 -31 -23 -37 -37 -11 -24 -7 -30 54 -93 l65 -67 -16
-37 -16 -37 -95 -3 -95 -3 0 -45 0 -45 95 -3 95 -3 16 -37 16 -37 -65 -67
c-61 -63 -65 -69 -54 -93 6 -14 23 -31 37 -37 24 -11 30 -7 93 54 l67 65 37
-16 37 -16 3 -95 3 -95 45 0 45 0 3 95 3 95 37 16 37 16 67 -65 c63 -61 69
-65 93 -54 14 6 31 23 37 37 11 24 7 30 -54 93 l-65 67 16 37 16 37 95 3 95 3
0 45 0 45 -95 3 -95 3 -16 37 -16 37 65 67 c61 63 65 69 54 93 -6 14 -23 31
-37 37 -24 11 -30 7 -93 -54 l-67 -65 -37 16 -37 16 -3 95 -3 95 -40 3 c-23 2
-44 0 -48 -4z m100 -303 c96 -44 102 -190 11 -237 -76 -39 -160 -9 -192 69
-20 47 -20 47 0 95 15 38 28 51 64 70 53 27 63 27 117 3z"/>
</g>
</svg>
